<?xml version="1.0" standalone="no"?>
<!DOCTYPE svg PUBLIC "-//W3C//DTD SVG 20010904//EN"
 "http://www.w3.org/TR/2001/REC-SVG-20010904/DTD/svg10.dtd">
<svg version="1.0" xmlns="http://www.w3.org/2000/svg"
 width="225.000000pt" height="225.000000pt" viewBox="0 0 225.000000 225.000000"
 preserveAspectRatio="xMidYMid meet">
<metadata>
Created by potrace 1.10, written by Peter Selinger 2001-2011
</metadata>
<g transform="translate(0.000000,225.000000) scale(0.100000,-0.100000)"
fill="currentColor" stroke="none">
<path d="M290 2241 c-49 -10 -75 -29 -99 -72 -20 -36 -21 -49 -21 -521 0 -452
1 -486 19 -518 29 -54 88 -80 182 -80 l79 0 -25 -57 c-15 -33 -42 -70 -64 -90
-22 -18 -51 -56 -65 -85 l-26 -52 0 -315 c0 -298 1 -317 21 -357 25 -53 76
-87 121 -82 l33 3 -50 32 c-76 49 -79 57 -82 223 l-3 145 20 -36 c10 -20 33
-48 50 -63 28 -23 29 -26 10 -26 -11 0 -32 -11 -46 -25 -43 -43 -26 -138 32
-184 22 -17 41 -21 106 -21 44 0 89 5 101 11 70 37 92 137 40 191 l-27 28 66
0 66 0 -27 -28 c-20 -20 -30 -42 -35 -81 -9 -66 -32 -101 -91 -135 -25 -15
-45 -31 -45 -35 0 -14 80 5 109 26 39 28 71 99 71 155 l0 48 464 0 464 0 4
-65 c6 -94 53 -149 139 -165 l44 -8 -26 21 c-15 12 -43 34 -62 50 -37 28 -57
74 -57 130 0 18 -11 39 -29 58 l-29 29 65 0 65 0 -32 -36 c-27 -31 -31 -42
-26 -75 12 -89 55 -119 168 -119 93 0 116 10 149 64 14 23 19 26 19 12 0 -18
-41 -63 -95 -103 l-30 -22 37 0 c28 -1 46 7 74 31 63 56 64 62 64 415 0 298
-2 321 -21 363 -11 25 -35 61 -53 80 -22 23 -58 92 -105 201 -40 91 -79 176
-88 189 -9 12 -34 31 -57 41 -37 17 -69 19 -318 19 l-278 0 0 266 0 266 -52
53 c-29 29 -111 108 -183 175 -121 114 -169 149 -184 134 -3 -3 81 -90 187
-192 l192 -187 0 -253 0 -254 29 -28 28 -29 -27 -26 c-19 -18 -30 -42 -35 -73
-5 -31 -16 -55 -36 -75 -40 -40 -49 -27 -10 15 l31 33 0 313 0 313 -25 24
c-16 17 -35 25 -60 25 -41 0 -42 3 -15 30 11 11 20 27 20 36 0 20 -117 142
-172 180 l-40 28 -24 -27 c-21 -24 -24 -38 -24 -106 0 -65 4 -83 21 -105 23
-29 21 -40 -4 -30 -26 10 -37 62 -37 179 0 161 9 155 -244 155 -120 0 -205 -4
-217 -11 -11 -5 -29 -25 -39 -42 -16 -26 -20 -28 -20 -12 0 12 23 41 57 72 32
29 56 52 53 52 -3 -1 -21 -4 -40 -8z m410 -222 c0 -203 6 -208 213 -209 l147
0 0 -314 c0 -273 -2 -317 -16 -330 -13 -14 -62 -16 -383 -16 -302 0 -371 2
-380 14 -16 20 -16 952 0 972 9 11 54 14 215 14 l204 0 0 -131z m285 -101 c19
-17 16 -18 -83 -18 l-102 0 0 97 0 96 83 -78 c45 -43 91 -87 102 -97z m829
-723 c19 -38 37 -81 41 -95 16 -53 87 -185 124 -234 22 -28 42 -64 46 -81 6
-27 5 -26 -15 10 -32 61 -83 104 -130 111 l-41 7 25 26 c14 15 26 33 26 40 0
7 -23 67 -52 133 -36 83 -62 128 -85 148 -41 37 -42 47 -2 23 21 -12 41 -40
63 -88z m-82 37 c9 -9 41 -74 72 -144 l54 -128 -33 0 c-28 0 -33 4 -38 28 -9
46 -69 125 -117 154 -89 55 -201 55 -290 0 -48 -29 -108 -108 -117 -154 l-5
-28 -374 0 -374 0 22 44 21 45 253 3 c237 3 254 4 280 24 47 35 67 70 72 126
l4 53 277 -3 c244 -3 278 -5 293 -20z m-1463 -106 c14 -16 19 -25 11 -21 -32
17 -60 49 -60 69 1 21 1 21 12 1 6 -11 22 -33 37 -49z m1139 -33 c-44 -37 -64
-62 -79 -96 -11 -25 -9 -31 16 -57 l29 -30 -63 0 -63 0 31 35 c17 20 31 41 31
48 0 22 51 88 83 108 46 28 54 23 15 -8z m242 12 c34 -17 72 -65 93 -116 8
-20 27 -45 42 -57 l28 -22 -68 0 -67 0 26 30 c21 26 23 34 15 59 -6 17 -32 50
-59 75 -53 50 -54 54 -10 31z m-1080 -5 c13 -9 13 -10 -1 -10 -22 0 -68 -51
-79 -89 -8 -28 -6 -36 15 -57 31 -30 31 -34 3 -34 -41 0 -103 -39 -141 -88
-20 -27 -37 -55 -38 -63 0 -8 -3 -9 -5 -3 -9 20 15 62 66 119 46 51 90 128 90
158 0 17 -42 57 -59 57 -14 0 -14 1 -1 10 8 5 42 10 75 10 33 0 67 -5 75 -10z
m1026 -29 c36 -16 73 -53 98 -98 6 -10 -31 -13 -169 -13 l-176 0 15 28 c29 56
100 101 161 101 17 0 49 -8 71 -18z m351 -252 c18 -23 33 -51 33 -63 5 -328 3
-378 -19 -399 l-22 -22 -765 0 -766 0 -24 28 c-23 27 -24 33 -24 190 0 89 4
178 10 197 5 18 28 52 50 74 l39 41 728 -2 727 -3 33 -41z m92 -366 c-1 -164
-5 -280 -8 -258 -10 58 -28 85 -61 91 l-29 6 28 24 c54 45 61 75 61 263 0 94
2 171 5 171 3 0 4 -134 4 -297z m-1535 -213 l106 0 0 -50 c0 -74 -22 -90 -125
-90 -102 0 -117 12 -123 101 -4 59 -4 61 16 50 11 -6 68 -11 126 -11z m1482
-2 c-3 -13 -6 -40 -6 -60 0 -61 -25 -78 -116 -78 -41 0 -84 4 -94 10 -21 11
-40 60 -40 101 l0 29 108 0 c59 0 114 5 122 10 24 16 33 12 26 -12z"/>
<path d="M398 1693 c-22 -5 -35 -50 -21 -72 16 -25 248 -29 274 -5 24 22 24
39 -1 64 -18 18 -32 20 -127 19 -60 -1 -116 -3 -125 -6z"/>
<path d="M388 1509 c-22 -12 -23 -52 -2 -73 23 -24 515 -24 538 0 20 20 20 48
0 68 -13 14 -51 16 -267 16 -153 0 -259 -5 -269 -11z"/>
<path d="M382 1328 c-16 -16 -15 -53 3 -68 10 -8 84 -12 270 -12 186 0 260 4
270 12 18 15 19 52 3 68 -17 17 -529 17 -546 0z"/>
<path d="M461 716 c-8 -9 -11 -56 -9 -142 l3 -129 174 -3 c119 -2 178 1 187 9
11 9 14 42 14 135 0 112 -2 124 -19 134 -11 6 -88 10 -179 10 -124 0 -162 -3
-171 -14z m71 -59 c-42 -44 -45 -101 -5 -147 l26 -32 -29 4 -29 3 -3 89 c-2
49 -1 95 2 103 3 7 20 13 38 13 l32 0 -32 -33z m246 25 c9 -6 12 -34 10 -103
l-3 -94 -27 -3 c-34 -4 -35 6 -3 37 37 34 34 90 -6 136 -31 35 -31 35 -8 35
13 0 30 -4 37 -8z m-38 -102 l0 -50 -100 0 -100 0 0 50 0 50 100 0 100 0 0
-50z"/>
<path d="M1532 718 c-17 -17 -17 -249 0 -266 17 -17 339 -17 356 0 8 8 12 53
12 135 0 111 -2 123 -19 133 -29 15 -334 13 -349 -2z m70 -61 c-42 -44 -45
-101 -5 -147 l26 -32 -29 4 -29 3 -3 94 c-3 101 1 111 47 111 25 0 25 0 -7
-33z m246 25 c9 -6 12 -34 10 -103 l-3 -94 -29 -3 -28 -4 26 35 c37 48 35 96
-5 142 -31 35 -31 35 -8 35 13 0 30 -4 37 -8z m-38 -102 l0 -50 -100 0 -100 0
0 50 0 50 100 0 100 0 0 -50z"/>
<path d="M956 674 c-22 -22 -20 -50 6 -68 18 -13 57 -16 215 -16 180 0 194 1
213 20 25 25 25 42 2 63 -27 25 -412 25 -436 1z"/>
<path d="M962 524 c-26 -18 -28 -46 -6 -68 13 -14 47 -16 218 -16 184 0 204 2
219 18 22 24 21 38 -3 62 -19 19 -33 20 -213 20 -158 0 -197 -3 -215 -16z"/>
</g>
</svg>
