<?xml version="1.0" standalone="no"?>
<!DOCTYPE svg PUBLIC "-//W3C//DTD SVG 20010904//EN"
 "http://www.w3.org/TR/2001/REC-SVG-20010904/DTD/svg10.dtd">
<svg version="1.0" xmlns="http://www.w3.org/2000/svg"
 width="225.000000pt" height="225.000000pt" viewBox="0 0 225.000000 225.000000"
 preserveAspectRatio="xMidYMid meet">
<metadata>
Created by potrace 1.10, written by Peter Selinger 2001-2011
</metadata>
<g transform="translate(0.000000,225.000000) scale(0.100000,-0.100000)"
fill="currentColor" stroke="none">
<path d="M1176 2198 c-11 -15 -16 -45 -16 -85 l0 -63 -323 0 c-179 0 -337 -4
-356 -10 -46 -13 -93 -47 -120 -85 -12 -18 -65 -149 -117 -291 -91 -244 -99
-262 -146 -311 -59 -63 -90 -129 -86 -181 l3 -37 33 70 c18 38 56 96 84 128
48 55 59 79 145 309 51 138 102 265 113 284 12 18 38 43 58 56 36 23 42 23
372 26 325 3 335 4 357 24 17 16 23 33 23 64 0 51 8 74 25 74 10 0 14 -26 17
-95 4 -132 12 -139 156 -143 60 -2 110 -9 114 -15 3 -5 9 -35 13 -65 4 -31 13
-65 21 -78 14 -20 148 -84 178 -84 8 0 34 15 59 34 87 66 78 67 173 -25 52
-52 84 -90 84 -104 0 -11 -18 -44 -40 -74 -22 -29 -40 -59 -40 -67 0 -25 62
-162 80 -179 10 -9 48 -20 85 -25 36 -4 77 -15 90 -24 32 -21 38 -20 30 7 -12
40 -43 57 -102 57 -57 0 -93 13 -93 33 0 7 -13 39 -29 72 l-28 60 48 56 c71
82 69 91 -49 210 -117 119 -125 121 -209 50 -50 -42 -62 -48 -78 -38 -11 6
-45 21 -75 33 -50 21 -56 26 -62 61 -4 21 -7 55 -7 75 -1 27 -8 42 -28 58 -25
19 -38 21 -136 19 l-109 -3 -2 106 c-1 119 -10 138 -62 138 -23 0 -38 -7 -48
-22z"/>
<path d="M500 1959 c-32 -13 -68 -47 -86 -82 -17 -33 -139 -360 -149 -400 -11
-42 25 -77 80 -77 50 0 73 22 99 92 24 65 95 141 164 175 77 38 190 39 270 4
65 -29 144 -113 168 -178 33 -91 86 -119 132 -70 21 23 22 31 22 261 l0 237
-25 24 -24 25 -313 -1 c-183 0 -323 -4 -338 -10z m660 -274 l0 -245 -29 0
c-25 0 -30 5 -36 33 -20 91 -104 189 -202 234 -191 88 -427 -16 -490 -214
l-17 -53 -49 0 c-43 0 -48 2 -42 18 4 9 40 107 81 217 74 198 91 230 129 246
11 4 163 8 338 8 l317 1 0 -245z"/>
<path d="M1266 1868 c-13 -18 -16 -55 -16 -195 0 -214 -1 -212 117 -212 98 0
164 -20 228 -69 123 -93 173 -250 125 -391 -28 -83 -70 -142 -135 -186 -67
-47 -131 -65 -225 -65 -112 0 -110 4 -110 -213 0 -168 1 -177 22 -197 18 -16
35 -20 93 -20 63 0 74 3 95 25 15 16 24 41 28 74 5 57 19 73 77 91 22 7 66 26
97 41 32 16 63 29 70 29 7 0 33 -16 57 -35 62 -49 88 -46 145 15 25 27 46 55
46 63 0 8 -18 40 -39 72 -44 65 -46 46 13 180 50 113 47 109 108 120 80 14 98
34 98 107 0 33 -4 68 -10 78 -11 21 -60 40 -105 40 -35 0 -59 21 -70 60 -4 14
-23 60 -42 102 l-36 78 29 40 c53 73 57 86 40 119 -19 35 -84 91 -107 91 -9 0
-36 -15 -61 -34 -25 -19 -51 -36 -59 -38 -8 -1 -54 14 -104 35 -145 60 -139
56 -148 117 -12 84 -33 100 -128 100 -69 0 -80 -3 -93 -22z m178 -40 c3 -13 6
-37 6 -55 0 -63 14 -79 87 -103 37 -12 92 -35 120 -51 29 -16 63 -29 76 -29
12 0 45 20 74 45 l51 45 46 -46 46 -46 -45 -51 c-53 -61 -55 -81 -16 -151 16
-28 39 -81 51 -119 23 -73 39 -87 93 -87 19 0 49 -3 66 -6 31 -6 31 -7 31 -69
l0 -62 -72 -7 c-39 -3 -77 -11 -84 -17 -7 -6 -22 -40 -34 -77 -12 -37 -35 -90
-51 -118 -16 -28 -29 -60 -29 -70 0 -10 20 -43 44 -74 l45 -57 -44 -43 -44
-43 -43 35 c-78 63 -81 64 -156 25 -37 -19 -92 -42 -122 -52 -71 -22 -90 -44
-90 -105 0 -79 -2 -80 -91 -80 l-79 0 0 178 0 177 103 0 c90 0 109 3 160 27
161 76 259 255 230 424 -37 212 -225 361 -430 340 l-63 -7 0 176 0 175 79 0
c73 0 79 -2 85 -22z"/>
<path d="M650 1643 c-56 -20 -143 -105 -160 -157 -11 -34 -10 -39 11 -62 22
-24 23 -24 244 -24 221 0 222 0 244 24 21 23 22 28 11 62 -18 55 -104 137
-164 157 -61 21 -126 21 -186 0z m218 -60 c44 -27 95 -88 105 -125 5 -17 -11
-18 -229 -18 -263 0 -248 -6 -192 77 28 42 76 78 126 94 51 16 140 3 190 -28z"/>
<path d="M1321 1420 c-18 -4 -43 -18 -55 -29 -20 -21 -21 -30 -21 -282 l0
-261 33 -29 c28 -26 40 -29 95 -29 88 0 148 23 212 82 137 125 148 312 26 451
-63 71 -204 119 -290 97z m176 -62 c23 -11 62 -41 87 -68 125 -133 83 -349
-85 -435 -39 -21 -115 -29 -173 -21 l-46 7 0 264 0 265 28 6 c15 3 32 7 37 9
21 8 112 -8 152 -27z"/>
<path d="M225 1348 c-36 -19 -96 -82 -118 -123 -21 -38 -22 -52 -22 -295 0
-237 1 -257 20 -288 11 -18 34 -42 51 -53 30 -18 55 -19 516 -19 l485 0 21 23
c19 20 22 35 22 111 0 79 -2 89 -25 111 -22 23 -31 25 -120 25 -86 0 -96 2
-93 18 3 14 17 17 98 20 51 1 100 8 108 14 29 24 32 45 11 72 -19 24 -26 25
-117 28 -83 3 -97 6 -100 21 -3 15 7 17 93 17 89 0 98 2 120 25 24 23 25 30
25 144 0 177 49 161 -504 161 -309 -1 -457 -4 -471 -12z m935 -153 l0 -125
-106 0 c-124 0 -144 -7 -144 -55 0 -54 26 -65 147 -65 85 0 103 -3 103 -15 0
-12 -18 -15 -103 -15 -118 0 -147 -12 -147 -60 0 -52 19 -60 141 -60 l109 0 0
-95 0 -95 -486 0 -486 0 -34 34 -34 34 0 234 c0 128 5 250 10 270 6 20 31 59
56 87 l46 51 464 0 464 0 0 -125z"/>
<path d="M260 1110 c-18 -18 -20 -33 -20 -175 0 -211 -20 -195 255 -195 275 0
255 -16 255 195 0 211 20 195 -255 195 -202 0 -216 -1 -235 -20z m438 -32 c17
-17 17 -269 0 -286 -8 -8 -67 -12 -199 -12 -157 0 -190 3 -203 16 -13 12 -16
40 -16 135 0 66 5 129 10 140 10 18 23 19 203 19 137 0 196 -3 205 -12z"/>
<path d="M352 1027 c-18 -19 -22 -35 -22 -93 0 -61 3 -74 23 -92 21 -20 34
-22 139 -22 64 0 124 3 133 6 59 23 59 195 0 218 -9 3 -69 6 -134 6 -110 0
-119 -1 -139 -23z m278 -92 l0 -75 -135 0 -135 0 0 75 0 75 135 0 135 0 0 -75z"/>
<path d="M2218 991 c-17 -14 -48 -23 -88 -28 -34 -3 -71 -14 -83 -23 -12 -10
-38 -55 -56 -99 l-34 -82 32 -42 c50 -67 63 -95 52 -115 -15 -29 -158 -162
-173 -162 -8 0 -39 18 -68 40 -29 22 -63 40 -74 40 -34 0 -137 -44 -166 -70
-21 -20 -29 -38 -35 -85 -4 -33 -12 -66 -17 -72 -7 -9 -42 -13 -109 -13 -89 0
-100 -2 -126 -24 -25 -21 -28 -31 -31 -100 -3 -53 -8 -76 -17 -76 -22 0 -25
26 -25 220 l0 189 -26 20 c-25 20 -39 21 -290 21 -171 0 -272 -4 -287 -11 -34
-15 -45 -42 -50 -121 -5 -79 -30 -126 -85 -160 -34 -21 -49 -23 -168 -23 -125
0 -132 1 -171 27 -28 18 -52 48 -75 90 -22 41 -34 56 -36 44 -12 -63 47 -153
123 -187 58 -27 263 -27 320 0 90 41 134 116 135 229 l0 72 285 0 285 0 0
-208 c0 -240 4 -255 68 -250 51 4 64 32 59 131 l-4 77 123 0 c146 0 148 1 159
116 l7 71 36 11 c21 6 55 21 76 32 l40 20 30 -25 c67 -55 105 -77 123 -71 10
3 62 49 116 102 116 115 119 125 51 208 l-47 56 26 58 c14 31 28 67 32 80 5
19 14 22 58 23 83 2 110 11 125 42 19 40 11 52 -20 28z"/>
<path d="M100 513 c-20 -25 -21 -36 -17 -97 6 -76 22 -106 77 -143 29 -20 46
-23 135 -23 89 0 106 3 135 23 51 34 69 66 76 134 6 59 6 63 -24 92 l-30 31
-135 0 c-74 0 -148 3 -164 6 -25 5 -34 1 -53 -23z m222 -23 l150 0 -4 -70 c-3
-60 -8 -74 -31 -98 -27 -26 -30 -27 -142 -27 -112 0 -115 1 -142 28 -25 24
-28 36 -31 107 l-4 80 27 -10 c14 -5 94 -10 177 -10z"/>
</g>
</svg>
