<?xml version="1.0" standalone="no"?>
<!DOCTYPE svg PUBLIC "-//W3C//DTD SVG 20010904//EN"
 "http://www.w3.org/TR/2001/REC-SVG-20010904/DTD/svg10.dtd">
<svg version="1.0" xmlns="http://www.w3.org/2000/svg"
 width="225.000000pt" height="225.000000pt" viewBox="0 0 225.000000 225.000000"
 preserveAspectRatio="xMidYMid meet">
<metadata>
Created by potrace 1.10, written by Peter Selinger 2001-2011
</metadata>
<g transform="translate(0.000000,225.000000) scale(0.100000,-0.100000)"
fill="currentColor" stroke="none">
<path d="M547 1753 c-3 -5 -31 -110 -62 -234 l-57 -226 -33 -12 c-43 -15 -91
-70 -104 -118 -6 -21 -11 -106 -11 -188 0 -137 2 -155 22 -195 13 -25 37 -54
55 -65 l32 -20 1 -97 c0 -92 1 -97 26 -117 23 -18 40 -21 138 -21 149 1 166
15 166 139 l0 71 415 0 415 0 0 -79 c0 -70 3 -83 24 -108 24 -27 26 -28 131
-28 105 0 107 1 131 28 21 25 24 38 25 120 l0 92 42 30 c25 19 47 44 54 65 15
44 17 321 2 373 -13 48 -61 103 -102 118 l-32 11 -44 217 c-24 119 -48 224
-53 234 -8 16 -47 17 -593 17 -321 0 -586 -3 -588 -7z m1152 -186 c13 -67 32
-155 41 -194 l17 -73 -38 0 c-36 0 -39 2 -39 29 0 48 -58 122 -119 154 -133
67 -282 0 -322 -145 l-10 -38 -365 0 c-343 0 -365 1 -360 18 3 9 23 91 46 182
23 91 43 171 45 178 3 9 121 12 542 12 l538 0 24 -123z m-159 -149 c37 -25 65
-61 75 -95 l6 -23 -160 0 c-178 0 -179 0 -138 61 53 78 148 103 217 57z m318
-222 l37 -34 3 -162 c4 -190 -1 -208 -64 -242 l-44 -23 0 -107 0 -108 -85 0
-85 0 0 110 0 110 -485 0 -485 0 0 -104 0 -105 -91 -3 c-53 -2 -94 1 -97 7 -4
6 -5 53 -3 105 l3 95 -37 14 c-66 23 -75 52 -75 238 0 160 0 162 27 193 14 18
36 36 47 40 12 5 330 9 709 9 l687 1 38 -34z"/>
<path d="M471 1076 c-70 -39 -67 -148 6 -185 12 -6 67 -11 123 -11 98 0 102 1
130 29 36 36 46 73 29 112 -21 53 -60 69 -169 69 -60 -1 -104 -6 -119 -14z
m220 -72 c9 -11 10 -20 2 -32 -15 -25 -182 -30 -200 -6 -9 12 -9 22 -2 35 8
16 22 19 98 19 69 0 92 -4 102 -16z"/>
<path d="M810 1055 l0 -35 315 0 315 0 0 35 0 35 -315 0 -315 0 0 -35z"/>
<path d="M1528 1073 c-47 -29 -61 -89 -34 -142 21 -40 56 -51 166 -51 95 0
101 1 130 28 57 50 42 146 -26 172 -44 17 -205 12 -236 -7z m223 -69 c9 -11
10 -20 2 -32 -15 -25 -182 -30 -200 -6 -9 12 -9 22 -2 35 8 16 22 19 98 19 69
0 92 -4 102 -16z"/>
<path d="M810 915 l0 -35 315 0 315 0 0 35 0 35 -315 0 -315 0 0 -35z"/>
</g>
</svg>
